<svg width="22" height="19" viewBox="0 0 22 19" fill="none" xmlns="http://www.w3.org/2000/svg">
<path fill-rule="evenodd" clip-rule="evenodd" d="M11.5284 18.6424L19.4931 10.5874C21.7074 8.29787 21.7074 4.75934 19.4931 2.46982C18.4427 1.38747 16.9708 0.77163 15.4287 0.769347C14.0236 0.770906 12.6764 1.28126 11.6525 2.18965C11.5518 2.279 11.4542 2.37219 11.36 2.46912L11.0015 2.83232L10.6429 2.46912C10.5465 2.36962 10.447 2.27446 10.3448 2.18363C8.23352 0.308422 4.9381 0.284074 2.79519 2.1928C2.69564 2.28151 2.59948 2.37364 2.50695 2.46912C0.292525 4.75889 0.292525 8.29762 2.50695 10.5874L10.4746 18.6424C10.7502 18.9213 11.2096 18.9333 11.5006 18.669C11.5101 18.6604 11.5194 18.6515 11.5284 18.6424ZM3.16703 9.94211L11.0015 17.8624L18.833 9.94213C20.6976 8.01058 20.6967 5.04277 18.8302 3.11223C17.958 2.21367 16.7271 1.69466 15.4286 1.69242C14.1284 1.69418 12.8958 2.21322 12.022 3.11243L12.0169 3.11763L11.0015 4.14627L9.98006 3.11158C8.23868 1.31487 5.2885 1.20826 3.40929 2.88196M3.16703 9.94211C1.30223 8.0102 1.30327 5.04195 3.17014 3.11119C3.24667 3.03225 3.32653 2.95572 3.40929 2.88196" fill="#444444"/>
</svg>
