<svg width="12" height="14" viewBox="0 0 12 14" fill="none" xmlns="http://www.w3.org/2000/svg">
<path fill-rule="evenodd" clip-rule="evenodd" d="M3.25023 4.40069C3.25023 2.92539 4.46955 1.70837 5.99983 1.70837C7.53011 1.70837 8.74943 2.92539 8.74943 4.40069C8.74943 5.87599 7.53011 7.093 5.99983 7.093C4.46955 7.093 3.25023 5.87599 3.25023 4.40069ZM5.99983 0.208374C3.66456 0.208374 1.75023 2.07371 1.75023 4.40069C1.75023 6.72766 3.66456 8.593 5.99983 8.593C8.3351 8.593 10.2494 6.72766 10.2494 4.40069C10.2494 2.07371 8.3351 0.208374 5.99983 0.208374ZM2.375 13.6657C2.375 12.1787 3.58039 10.9734 5.06731 10.9734H6.93168C8.4186 10.9734 9.624 12.1787 9.624 13.6657H11.124C11.124 11.3503 9.24703 9.47335 6.93168 9.47335H5.06731C2.75196 9.47335 0.875 11.3503 0.875 13.6657H2.375Z" fill="#D0BC7A"/>
</svg>
