<svg width="14" height="14" viewBox="0 0 14 14" fill="none" xmlns="http://www.w3.org/2000/svg">
<path d="M3.66375 1H1.1579C1.1579 1 0.802622 3.74333 1.1579 5.44079C1.59925 7.54946 2.10164 8.85162 3.62501 10.375C5.14838 11.8984 6.45053 12.4007 8.55921 12.8421C10.2567 13.1974 13 12.8421 13 12.8421V10.3363C13 9.47539 12.4491 8.71111 11.6325 8.43888L10.5094 8.06453C10.2293 7.97116 9.9209 8.06903 9.7459 8.30685C9.10435 9.17871 7.82256 9.23788 7.10341 8.42884L5.66526 6.81092C5.01395 6.07819 5.05613 4.96226 5.7609 4.28078C5.96331 4.08506 6.03545 3.79056 5.94642 3.52344L5.56112 2.36754C5.28889 1.55086 4.52461 1 3.66375 1Z" stroke="#D0BC7A" stroke-width="1.5"/>
</svg>
