<svg width="14" height="13" viewBox="0 0 14 13" fill="none" xmlns="http://www.w3.org/2000/svg">
<path d="M1.00065 0.5H13.0007C13.1775 0.5 13.347 0.570238 13.4721 0.695262C13.5971 0.820286 13.6673 0.989856 13.6673 1.16667V11.8333C13.6673 12.0101 13.5971 12.1797 13.4721 12.3047C13.347 12.4298 13.1775 12.5 13.0007 12.5H1.00065C0.82384 12.5 0.654271 12.4298 0.529246 12.3047C0.404222 12.1797 0.333984 12.0101 0.333984 11.8333V1.16667C0.333984 0.989856 0.404222 0.820286 0.529246 0.695262C0.654271 0.570238 0.82384 0.5 1.00065 0.5ZM12.334 3.32533L7.04865 8.05867L1.66732 3.31067V11.1667H12.334V3.32533ZM2.00798 1.83333L7.04132 6.27467L12.002 1.83333H2.00798Z" fill="white"/>
</svg>
